<mxfile host="app.diagrams.net" modified="2023-07-11T23:35:08.208Z" agent="Mozilla/5.0 (Windows NT 10.0; Win64; x64) AppleWebKit/537.36 (KHTML, like Gecko) Chrome/114.0.0.0 Safari/537.36" version="21.6.2" etag="XRQus1oTpZKXT5kOzT_Y" type="github">
  <diagram name="페이지-1" id="Wd1krl6P6E-P3EcZC6bm">
    <mxGraphModel>
      <root>
        <mxCell id="0" />
        <mxCell id="1" parent="0" />
      </root>
    </mxGraphModel>
  </diagram>
</mxfile>
